<svg xmlns="http://www.w3.org/2000/svg" version="1.0" viewBox="0 0 376 448" fill="#fff">
    <!-- <defs>
        <linearGradient id="linear-gradient" x1="0%" y1="0%" x2="0%" y2="120%">
            <stop offset="0%" stop-color="#4f5bd5"/>
            
            <stop offset="100%" stop-color="#962fbf"/>
        </linearGradient>
    </defs> -->
    <path d="M197.5 70.1c-15.3 2.2-30.8 10.3-42 22-14.7 15.4-21.5 33.9-21.5 58.5v8.4H79.7l.6 12.7c1 20.4 5.9 32.6 18 44.7 9.6 9.5 23.6 16.6 32.8 16.6h2.8l.4 51.2c.4 56 .5 56.7 6.6 70.2 18.4 40.6 67.3 56.3 105.6 34 9.4-5.5 21.3-17.1 26.4-25.8 9.6-16.2 12.7-34.8 8.9-54.4l-1-5.3-2.7 4.3c-3.6 5.7-9.3 10.5-16.1 13.7-4.8 2.3-6.8 2.6-15.5 2.6-9.3 0-10.5-.2-16.6-3.2-7.9-3.9-14-10.2-17.7-18.1l-2.7-5.7-.3-31.3-.3-31.2H236c14.8 0 27-.3 27-.8 0-4.8-2.6-18.5-4.5-24.3-6.9-20.2-24.2-38-43.6-44.8l-5.4-1.9-.3-46.6L209 69l-2.8.1c-1.5.1-5.4.5-8.7 1"/>
</svg>